<?xml version="1.0" encoding="UTF-8"?>
<svg id="_图层_2" data-name="图层 2" xmlns="http://www.w3.org/2000/svg" viewBox="0 0 371.43 655.91">
  <defs>
    <style>
      .cls-1 {
        fill: #42dfff;
      }
    </style>
  </defs>
  <g id="_图层_1-2" data-name="图层 1">
    <path class="cls-1" d="m370.68,241.78c-2.99-22.05-37.7,29.89-47.39,32.33-36.33,31.45-123.65,70.37-125.03,66.77-1.38-3.6-26.27-146.65-4.94-218.45,3.8-33.15,75.47-108.26,90.6-57.66v69.85h11.91V26.88c-.47-11.87-1.69-20.37-4.31-21.11-11.53-3.87-39.76-11.54-66,1.59-17.38,8.68-32.22,25.65-43.19,59.54-38.45,118.91-1.69,282.15-1.46,283.21s-34.31,16.75-64.42,40.34C31.44,463.35-8.9,525.1,1.64,639.63c16.97,45.34,104.45-15.85,123.58-40.53,49.05-43.45,72.33-111.37,72.85-175.82-1.08-11.03,29.71-20.86,39.16-26.91,29.42-11.76,58.56-26.41,84.79-44.12,32.65-26.6,53.71-67.95,48.66-110.47ZM31.71,580.36c30.76-62.21,81.24-114.84,141.97-148.12-25.15,64.4-71.49,130.38-141.97,148.12Z"/>
  </g>
</svg>